<mxfile host="app.diagrams.net" modified="2022-02-25T10:34:22.232Z" agent="5.0 (Windows NT 10.0; Win64; x64) AppleWebKit/537.36 (KHTML, like Gecko) Chrome/98.0.4758.102 Safari/537.36" etag="2KhTTQSLe8-Q-0fRc8Pq" version="16.5.6" type="github">
  <diagram id="HwV3YDCAdaPyHz8KKPNf" name="Page-1">
    <mxGraphModel dx="934" dy="495" grid="1" gridSize="10" guides="1" tooltips="1" connect="1" arrows="1" fold="1" page="1" pageScale="1" pageWidth="827" pageHeight="1169" math="0" shadow="0">
      <root>
        <mxCell id="0" />
        <mxCell id="1" parent="0" />
        <mxCell id="R0naT-Z6rodJIse6OpMG-1" value="Len Mark Detection" style="rounded=1;whiteSpace=wrap;html=1;fillColor=#ffe6cc;strokeColor=#d79b00;" parent="1" vertex="1">
          <mxGeometry x="110" y="60" width="120" height="60" as="geometry" />
        </mxCell>
        <mxCell id="R0naT-Z6rodJIse6OpMG-2" value="THI data verify" style="rounded=1;whiteSpace=wrap;html=1;fillColor=#ffe6cc;strokeColor=#d79b00;" parent="1" vertex="1">
          <mxGeometry x="110" y="350" width="120" height="60" as="geometry" />
        </mxCell>
        <mxCell id="R0naT-Z6rodJIse6OpMG-22" value="" style="edgeStyle=orthogonalEdgeStyle;rounded=0;orthogonalLoop=1;jettySize=auto;html=1;" parent="1" source="R0naT-Z6rodJIse6OpMG-3" target="R0naT-Z6rodJIse6OpMG-21" edge="1">
          <mxGeometry relative="1" as="geometry" />
        </mxCell>
        <mxCell id="R0naT-Z6rodJIse6OpMG-3" value="drone video" style="rounded=1;whiteSpace=wrap;html=1;" parent="1" vertex="1">
          <mxGeometry x="110" y="440" width="100" height="60" as="geometry" />
        </mxCell>
        <mxCell id="R0naT-Z6rodJIse6OpMG-7" value="" style="edgeStyle=orthogonalEdgeStyle;rounded=0;orthogonalLoop=1;jettySize=auto;html=1;" parent="1" source="R0naT-Z6rodJIse6OpMG-4" target="R0naT-Z6rodJIse6OpMG-6" edge="1">
          <mxGeometry relative="1" as="geometry" />
        </mxCell>
        <mxCell id="R0naT-Z6rodJIse6OpMG-4" value="GPS info&amp;nbsp;" style="rounded=1;whiteSpace=wrap;html=1;" parent="1" vertex="1">
          <mxGeometry x="110" y="140" width="90" height="60" as="geometry" />
        </mxCell>
        <mxCell id="R0naT-Z6rodJIse6OpMG-8" value="" style="edgeStyle=orthogonalEdgeStyle;rounded=0;orthogonalLoop=1;jettySize=auto;html=1;" parent="1" source="R0naT-Z6rodJIse6OpMG-5" target="R0naT-Z6rodJIse6OpMG-6" edge="1">
          <mxGeometry relative="1" as="geometry" />
        </mxCell>
        <mxCell id="R0naT-Z6rodJIse6OpMG-5" value="IMG.tif" style="rounded=1;whiteSpace=wrap;html=1;" parent="1" vertex="1">
          <mxGeometry x="110" y="220" width="90" height="60" as="geometry" />
        </mxCell>
        <mxCell id="i4Ne4rpii-elXVgdyaB3-3" style="edgeStyle=orthogonalEdgeStyle;rounded=0;orthogonalLoop=1;jettySize=auto;html=1;entryX=0;entryY=0.5;entryDx=0;entryDy=0;" edge="1" parent="1" source="R0naT-Z6rodJIse6OpMG-6" target="i4Ne4rpii-elXVgdyaB3-5">
          <mxGeometry relative="1" as="geometry" />
        </mxCell>
        <mxCell id="R0naT-Z6rodJIse6OpMG-6" value="Len detection" style="rounded=1;whiteSpace=wrap;html=1;" parent="1" vertex="1">
          <mxGeometry x="260" y="180" width="90" height="60" as="geometry" />
        </mxCell>
        <mxCell id="R0naT-Z6rodJIse6OpMG-15" value="" style="edgeStyle=orthogonalEdgeStyle;rounded=0;orthogonalLoop=1;jettySize=auto;html=1;" parent="1" source="R0naT-Z6rodJIse6OpMG-9" target="R0naT-Z6rodJIse6OpMG-14" edge="1">
          <mxGeometry relative="1" as="geometry" />
        </mxCell>
        <mxCell id="R0naT-Z6rodJIse6OpMG-9" value="len mark detection and classification" style="rounded=1;whiteSpace=wrap;html=1;" parent="1" vertex="1">
          <mxGeometry x="630" y="180" width="90" height="60" as="geometry" />
        </mxCell>
        <mxCell id="R0naT-Z6rodJIse6OpMG-11" value="Len mark colorfilter code(yellow, white)" style="rounded=1;whiteSpace=wrap;html=1;" parent="1" vertex="1">
          <mxGeometry x="260" y="260" width="90" height="60" as="geometry" />
        </mxCell>
        <mxCell id="R0naT-Z6rodJIse6OpMG-19" value="" style="edgeStyle=orthogonalEdgeStyle;rounded=0;orthogonalLoop=1;jettySize=auto;html=1;" parent="1" source="R0naT-Z6rodJIse6OpMG-14" target="R0naT-Z6rodJIse6OpMG-18" edge="1">
          <mxGeometry relative="1" as="geometry" />
        </mxCell>
        <mxCell id="R0naT-Z6rodJIse6OpMG-14" value="Set world wide position&amp;nbsp;" style="rounded=1;whiteSpace=wrap;html=1;" parent="1" vertex="1">
          <mxGeometry x="750" y="180" width="90" height="60" as="geometry" />
        </mxCell>
        <mxCell id="R0naT-Z6rodJIse6OpMG-18" value="Output data to specific format" style="rounded=1;whiteSpace=wrap;html=1;" parent="1" vertex="1">
          <mxGeometry x="870" y="180" width="90" height="60" as="geometry" />
        </mxCell>
        <mxCell id="R0naT-Z6rodJIse6OpMG-23" value="" style="edgeStyle=orthogonalEdgeStyle;rounded=0;orthogonalLoop=1;jettySize=auto;html=1;" parent="1" source="R0naT-Z6rodJIse6OpMG-20" target="R0naT-Z6rodJIse6OpMG-21" edge="1">
          <mxGeometry relative="1" as="geometry" />
        </mxCell>
        <mxCell id="R0naT-Z6rodJIse6OpMG-20" value="GPS info&amp;nbsp;" style="rounded=1;whiteSpace=wrap;html=1;" parent="1" vertex="1">
          <mxGeometry x="110" y="530" width="100" height="60" as="geometry" />
        </mxCell>
        <mxCell id="R0naT-Z6rodJIse6OpMG-28" value="" style="edgeStyle=orthogonalEdgeStyle;rounded=0;orthogonalLoop=1;jettySize=auto;html=1;" parent="1" source="R0naT-Z6rodJIse6OpMG-21" target="R0naT-Z6rodJIse6OpMG-25" edge="1">
          <mxGeometry relative="1" as="geometry" />
        </mxCell>
        <mxCell id="R0naT-Z6rodJIse6OpMG-21" value="Len detection" style="rounded=1;whiteSpace=wrap;html=1;" parent="1" vertex="1">
          <mxGeometry x="255" y="490" width="100" height="60" as="geometry" />
        </mxCell>
        <mxCell id="R0naT-Z6rodJIse6OpMG-32" value="" style="edgeStyle=orthogonalEdgeStyle;rounded=0;orthogonalLoop=1;jettySize=auto;html=1;" parent="1" source="R0naT-Z6rodJIse6OpMG-25" target="R0naT-Z6rodJIse6OpMG-31" edge="1">
          <mxGeometry relative="1" as="geometry" />
        </mxCell>
        <mxCell id="R0naT-Z6rodJIse6OpMG-25" value="Vehicle detection and classification" style="rounded=1;whiteSpace=wrap;html=1;" parent="1" vertex="1">
          <mxGeometry x="390" y="490" width="100" height="60" as="geometry" />
        </mxCell>
        <mxCell id="R0naT-Z6rodJIse6OpMG-34" value="" style="edgeStyle=orthogonalEdgeStyle;rounded=0;orthogonalLoop=1;jettySize=auto;html=1;" parent="1" source="R0naT-Z6rodJIse6OpMG-31" target="R0naT-Z6rodJIse6OpMG-33" edge="1">
          <mxGeometry relative="1" as="geometry" />
        </mxCell>
        <mxCell id="R0naT-Z6rodJIse6OpMG-31" value="Detect vehicle number, track, position on the len" style="rounded=1;whiteSpace=wrap;html=1;" parent="1" vertex="1">
          <mxGeometry x="530" y="490" width="100" height="60" as="geometry" />
        </mxCell>
        <mxCell id="R0naT-Z6rodJIse6OpMG-33" value="Output data to specific format or statistic chart" style="rounded=1;whiteSpace=wrap;html=1;" parent="1" vertex="1">
          <mxGeometry x="680" y="490" width="100" height="60" as="geometry" />
        </mxCell>
        <mxCell id="i4Ne4rpii-elXVgdyaB3-8" value="" style="edgeStyle=orthogonalEdgeStyle;rounded=0;orthogonalLoop=1;jettySize=auto;html=1;" edge="1" parent="1" source="i4Ne4rpii-elXVgdyaB3-2" target="i4Ne4rpii-elXVgdyaB3-6">
          <mxGeometry relative="1" as="geometry" />
        </mxCell>
        <mxCell id="i4Ne4rpii-elXVgdyaB3-2" value="unit slop if in similar degree" style="rounded=1;whiteSpace=wrap;html=1;" vertex="1" parent="1">
          <mxGeometry x="400" y="110" width="140" height="60" as="geometry" />
        </mxCell>
        <mxCell id="i4Ne4rpii-elXVgdyaB3-10" style="edgeStyle=orthogonalEdgeStyle;rounded=0;orthogonalLoop=1;jettySize=auto;html=1;entryX=0;entryY=0.5;entryDx=0;entryDy=0;" edge="1" parent="1" source="i4Ne4rpii-elXVgdyaB3-4" target="R0naT-Z6rodJIse6OpMG-9">
          <mxGeometry relative="1" as="geometry" />
        </mxCell>
        <mxCell id="i4Ne4rpii-elXVgdyaB3-4" value="lane is likely symmetrical&lt;br&gt;so use this feature to makeup mark under shadow (making a grading system)" style="rounded=1;whiteSpace=wrap;html=1;" vertex="1" parent="1">
          <mxGeometry x="379" y="330" width="180" height="100" as="geometry" />
        </mxCell>
        <mxCell id="i4Ne4rpii-elXVgdyaB3-7" style="edgeStyle=orthogonalEdgeStyle;rounded=0;orthogonalLoop=1;jettySize=auto;html=1;" edge="1" parent="1" source="i4Ne4rpii-elXVgdyaB3-5" target="i4Ne4rpii-elXVgdyaB3-2">
          <mxGeometry relative="1" as="geometry" />
        </mxCell>
        <mxCell id="i4Ne4rpii-elXVgdyaB3-5" value="check mask lane mark slop" style="rounded=1;whiteSpace=wrap;html=1;" vertex="1" parent="1">
          <mxGeometry x="390" y="20" width="160" height="60" as="geometry" />
        </mxCell>
        <mxCell id="i4Ne4rpii-elXVgdyaB3-9" value="" style="edgeStyle=orthogonalEdgeStyle;rounded=0;orthogonalLoop=1;jettySize=auto;html=1;" edge="1" parent="1" source="i4Ne4rpii-elXVgdyaB3-6" target="i4Ne4rpii-elXVgdyaB3-4">
          <mxGeometry relative="1" as="geometry" />
        </mxCell>
        <mxCell id="i4Ne4rpii-elXVgdyaB3-6" value="1. if line is in same slop &lt;br&gt;2.then check for it line position and the sum it up&lt;br&gt;3. do average to find final line position&amp;nbsp;" style="rounded=1;whiteSpace=wrap;html=1;" vertex="1" parent="1">
          <mxGeometry x="381" y="210" width="178" height="80" as="geometry" />
        </mxCell>
      </root>
    </mxGraphModel>
  </diagram>
</mxfile>
